<svg width="25" height="25" viewBox="0 0 25 25" fill="none" xmlns="http://www.w3.org/2000/svg">
<path d="M7.22971 5.20826C7.22932 6.0565 6.71471 6.81981 5.92852 7.13826C5.14233 7.45672 4.24157 7.26672 3.65098 6.65786C3.06038 6.049 2.8979 5.14286 3.24014 4.36674C3.58239 3.59061 4.36102 3.09948 5.20887 3.12493C6.33499 3.15873 7.23022 4.08163 7.22971 5.20826ZM7.29221 8.83326H3.12554V21.8749H7.29221V8.83326ZM13.8756 8.83326H9.72971V21.8749H13.8339V15.0311C13.8339 11.2186 18.8026 10.8645 18.8026 15.0311V21.8749H22.9172V13.6145C22.9172 7.18742 15.5631 7.42701 13.8339 10.5832L13.8756 8.83326Z" fill="white"/>
</svg>
