<svg width="25" height="25" viewBox="0 0 25 25" fill="none" xmlns="http://www.w3.org/2000/svg">
<path d="M12.5 24.7166L5.87087 18.0875C2.20971 14.4262 2.20971 8.49037 5.87087 4.82921C9.53204 1.16804 15.4679 1.16804 19.1292 4.82921C22.7903 8.49037 22.7903 14.4262 19.1292 18.0875L12.5 24.7166ZM17.6559 16.6143C20.5035 13.7668 20.5035 9.14992 17.6559 6.30234C14.8084 3.45477 10.1916 3.45477 7.34401 6.30234C4.49644 9.14992 4.49644 13.7668 7.34401 16.6143L12.5 21.7703L17.6559 16.6143ZM12.5 13.5417C11.3494 13.5417 10.4167 12.609 10.4167 11.4583C10.4167 10.3077 11.3494 9.375 12.5 9.375C13.6506 9.375 14.5833 10.3077 14.5833 11.4583C14.5833 12.609 13.6506 13.5417 12.5 13.5417Z" fill="white"/>
</svg>
