<svg width="25" height="25" viewBox="0 0 25 25" fill="none" xmlns="http://www.w3.org/2000/svg">
<path d="M21.875 17.1042V20.7876C21.875 21.3345 21.4522 21.7882 20.9068 21.8268C20.4511 21.859 20.0795 21.875 19.7917 21.875C10.5869 21.875 3.125 14.4131 3.125 5.20833C3.125 4.92053 3.14109 4.54882 3.17328 4.09323C3.21184 3.54779 3.66556 3.125 4.21235 3.125H7.89594C8.16331 3.125 8.38725 3.32752 8.41409 3.59354C8.4382 3.83236 8.4606 4.0241 8.48132 4.16877C8.69203 5.64033 9.12243 7.041 9.73823 8.33649C9.83707 8.54443 9.77261 8.79332 9.58526 8.92715L7.33703 10.5331C8.70575 13.7303 11.2697 16.2943 14.4669 17.663L16.0699 15.4186C16.2054 15.2291 16.4573 15.1639 16.6677 15.2637C17.9631 15.8791 19.3636 16.309 20.835 16.5192C20.9787 16.5398 21.1693 16.562 21.4065 16.5859C21.6725 16.6128 21.875 16.8368 21.875 17.1042Z" fill="white"/>
</svg>
